<svg xmlns="http://www.w3.org/2000/svg" xmlns:xlink="http://www.w3.org/1999/xlink" width="500" zoomAndPan="magnify" viewBox="0 0 375 374.999991" height="500" preserveAspectRatio="xMidYMid meet" version="1.0"><defs><g/><clipPath id="743214b77c"><path d="M 21.417969 10.425781 L 339.417969 10.425781 L 339.417969 287.925781 L 21.417969 287.925781 Z M 21.417969 10.425781 " clip-rule="nonzero"/></clipPath></defs><g clip-path="url(#743214b77c)"><path fill="#003479" d="M 190.113281 185.34375 C 182.652344 180.449219 185.082031 168.019531 197.75 172.707031 C 210.414062 177.390625 208.160156 201.167969 203.472656 207.761719 C 198.789062 214.351562 179.007812 214.351562 179.007812 214.351562 C 188.898438 202.035156 197.578125 190.234375 190.113281 185.34375 Z M 211.140625 161.757812 C 211.140625 161.757812 221.867188 167.542969 224.359375 184.476562 C 226.855469 201.417969 214.070312 208.925781 214.070312 208.925781 C 205.300781 197.3125 217.898438 190.140625 210.480469 179.445312 C 203.066406 168.75 211.140625 161.757812 211.140625 161.757812 Z M 227.003906 153.964844 C 227.003906 153.964844 237.933594 159.34375 241.058594 176.175781 C 244.183594 193.007812 231.6875 200.992188 231.6875 200.992188 C 222.492188 189.714844 234.8125 182.078125 227.003906 171.664062 C 219.195312 161.253906 227.003906 153.964844 227.003906 153.964844 Z M 255.011719 178.085938 C 253.453125 189.367188 247.03125 189.191406 247.03125 189.191406 C 247.03125 189.191406 245.292969 169.0625 242.171875 161.082031 C 239.046875 153.097656 256.574219 166.808594 255.011719 178.085938 Z M 201.785156 133.878906 C 213.050781 137.953125 220.472656 132.503906 224.175781 128.410156 C 226.238281 126.121094 229.234375 124.910156 232.300781 125.210938 C 311.964844 132.976562 334.105469 105.605469 339.714844 72.558594 C 334.78125 80.507812 326.929688 90.878906 315.976562 98.671875 C 295.746094 47.039062 245.519531 10.457031 186.710938 10.457031 C 121.597656 10.457031 66.976562 55.296875 51.988281 115.777344 C 83.144531 108.40625 117.875 120.75 139.964844 117.351562 C 173.800781 112.144531 174.582031 91.0625 195.667969 103.554688 C 216.75 116.050781 228.765625 106.015625 226.730469 111.453125 C 226.730469 111.453125 222.390625 132.96875 200.003906 124.988281 C 177.617188 117.003906 171.890625 121.167969 160.09375 130.886719 C 148.292969 140.605469 130.59375 156.222656 108.378906 166.285156 C 108.378906 166.285156 40.234375 161.050781 21.414062 228.152344 C 27.328125 221.53125 39.648438 209.640625 57.980469 201.242188 C 78.554688 252.160156 128.421875 288.105469 186.710938 288.105469 C 252.558594 288.105469 307.652344 242.246094 321.910156 180.738281 C 290.792969 190.003906 258.398438 184.765625 258.398438 184.765625 C 264.773438 168.238281 254.621094 156.65625 248.453125 154.574219 C 242.285156 152.492188 237.3125 156.917969 237.3125 156.917969 C 237.3125 156.917969 229.113281 147.414062 222.605469 149.757812 C 216.097656 152.101562 217.792969 158.695312 217.792969 158.695312 C 201.003906 154.492188 200.222656 168.238281 200.222656 168.238281 C 183.433594 162.382812 173.671875 177.609375 182.652344 185.339844 C 191.632812 193.074219 180.308594 208.582031 175.363281 211.316406 C 170.417969 214.050781 159.09375 207.152344 159.09375 207.152344 C 164.777344 201.375 176.753906 189.714844 175.363281 188.324219 C 173.976562 186.933594 164.953125 198.5625 155.753906 202.898438 C 146.558594 207.238281 140.660156 197.867188 140.660156 197.867188 C 140.660156 197.867188 170.679688 177.738281 170.851562 174.789062 C 171.027344 171.839844 161.308594 181.382812 144.648438 191.792969 C 127.988281 202.207031 121.570312 185.339844 121.570312 185.339844 C 138.230469 179.410156 159.921875 163.855469 159.574219 160.558594 C 159.226562 157.261719 135.453125 176.523438 123.304688 180.515625 C 111.160156 184.507812 108.382812 174.960938 108.382812 174.960938 C 108.382812 174.960938 139.269531 155.875 158.878906 139.21875 C 178.488281 122.558594 184.863281 127.765625 201.785156 133.878906 " fill-opacity="1" fill-rule="nonzero"/></g><g fill="#003479" fill-opacity="1"><g transform="translate(21.417601, 347.260849)"><g><path d="M 35.453125 0 L 28.25 0 L 28.25 -14.84375 L 11.921875 -14.84375 L 11.921875 0 L 4.71875 0 L 4.71875 -36.546875 L 11.921875 -36.546875 L 11.921875 -21.796875 L 28.25 -21.796875 L 28.25 -36.546875 L 35.453125 -36.546875 Z M 35.453125 0 "/></g></g></g><g fill="#003479" fill-opacity="1"><g transform="translate(66.538672, 347.260849)"><g><path d="M 14.40625 -5.3125 C 15.789062 -5.3125 17.226562 -5.789062 18.71875 -6.75 L 21.796875 -1.59375 C 20.609375 -0.925781 19.347656 -0.394531 18.015625 0 C 16.691406 0.394531 15.4375 0.59375 14.25 0.59375 C 11.664062 0.59375 9.4375 0.109375 7.5625 -0.859375 C 5.695312 -1.835938 4.285156 -3.210938 3.328125 -4.984375 C 2.367188 -6.753906 1.890625 -8.785156 1.890625 -11.078125 C 1.890625 -13.191406 2.441406 -15.140625 3.546875 -16.921875 C 4.660156 -18.710938 6.175781 -20.128906 8.09375 -21.171875 C 10.007812 -22.222656 12.113281 -22.75 14.40625 -22.75 C 17.507812 -22.75 20.0625 -21.835938 22.0625 -20.015625 C 24.070312 -18.191406 25.375 -15.59375 25.96875 -12.21875 L 10.078125 -7.15625 C 11.140625 -5.925781 12.582031 -5.3125 14.40625 -5.3125 Z M 13.859375 -17.328125 C 12.296875 -17.328125 11.050781 -16.796875 10.125 -15.734375 C 9.195312 -14.679688 8.734375 -13.257812 8.734375 -11.46875 L 8.734375 -11.03125 L 18.28125 -14.25 C 17.582031 -16.300781 16.109375 -17.328125 13.859375 -17.328125 Z M 13.859375 -17.328125 "/></g></g></g><g fill="#003479" fill-opacity="1"><g transform="translate(98.953191, 347.260849)"><g><path d="M 10.53125 -39.171875 L 10.53125 0 L 3.578125 0 L 3.578125 -39.171875 Z M 10.53125 -39.171875 "/></g></g></g><g fill="#003479" fill-opacity="1"><g transform="translate(118.015902, 347.260849)"><g><path d="M 18.578125 -22.796875 C 20.585938 -22.796875 22.390625 -22.3125 23.984375 -21.34375 C 25.578125 -20.382812 26.828125 -19.007812 27.734375 -17.21875 C 28.640625 -15.4375 29.09375 -13.335938 29.09375 -10.921875 C 29.09375 -8.535156 28.585938 -6.472656 27.578125 -4.734375 C 26.566406 -3.003906 25.160156 -1.679688 23.359375 -0.765625 C 21.554688 0.140625 19.5 0.59375 17.1875 0.59375 C 15.925781 0.59375 14.691406 0.367188 13.484375 -0.078125 C 12.273438 -0.523438 11.273438 -1.160156 10.484375 -1.984375 L 10.484375 10.421875 L 3.578125 10.421875 L 3.578125 -22.203125 L 9.53125 -22.203125 L 10.125 -19.609375 C 12.78125 -21.734375 15.597656 -22.796875 18.578125 -22.796875 Z M 15.796875 -4.859375 C 17.515625 -4.859375 18.984375 -5.421875 20.203125 -6.546875 C 21.429688 -7.679688 22.046875 -9.109375 22.046875 -10.828125 C 22.046875 -12.609375 21.488281 -14.070312 20.375 -15.21875 C 19.269531 -16.363281 17.90625 -16.9375 16.28125 -16.9375 C 14.925781 -16.9375 13.773438 -16.660156 12.828125 -16.109375 C 11.890625 -15.566406 11.125 -14.75 10.53125 -13.65625 L 10.53125 -8.34375 C 10.894531 -7.28125 11.546875 -6.429688 12.484375 -5.796875 C 13.429688 -5.171875 14.535156 -4.859375 15.796875 -4.859375 Z M 15.796875 -4.859375 "/></g></g></g><g fill="#003479" fill-opacity="1"><g transform="translate(153.954517, 347.260849)"><g><path d="M 42.359375 -38.03125 L 42.359375 0 L 35.15625 0 L 35.15625 -17.421875 L 23.234375 -0.5 L 23.140625 -0.5 L 11.671875 -16.34375 L 11.671875 0 L 4.71875 0 L 4.71875 -38.03125 L 4.765625 -38.03125 L 23.28125 -11.765625 L 42.25 -38.03125 Z M 42.359375 -38.03125 "/></g></g></g><g fill="#003479" fill-opacity="1"><g transform="translate(205.974847, 347.260849)"><g><path d="M 14.40625 -5.3125 C 15.789062 -5.3125 17.226562 -5.789062 18.71875 -6.75 L 21.796875 -1.59375 C 20.609375 -0.925781 19.347656 -0.394531 18.015625 0 C 16.691406 0.394531 15.4375 0.59375 14.25 0.59375 C 11.664062 0.59375 9.4375 0.109375 7.5625 -0.859375 C 5.695312 -1.835938 4.285156 -3.210938 3.328125 -4.984375 C 2.367188 -6.753906 1.890625 -8.785156 1.890625 -11.078125 C 1.890625 -13.191406 2.441406 -15.140625 3.546875 -16.921875 C 4.660156 -18.710938 6.175781 -20.128906 8.09375 -21.171875 C 10.007812 -22.222656 12.113281 -22.75 14.40625 -22.75 C 17.507812 -22.75 20.0625 -21.835938 22.0625 -20.015625 C 24.070312 -18.191406 25.375 -15.59375 25.96875 -12.21875 L 10.078125 -7.15625 C 11.140625 -5.925781 12.582031 -5.3125 14.40625 -5.3125 Z M 13.859375 -17.328125 C 12.296875 -17.328125 11.050781 -16.796875 10.125 -15.734375 C 9.195312 -14.679688 8.734375 -13.257812 8.734375 -11.46875 L 8.734375 -11.03125 L 18.28125 -14.25 C 17.582031 -16.300781 16.109375 -17.328125 13.859375 -17.328125 Z M 13.859375 -17.328125 "/></g></g></g><g fill="#003479" fill-opacity="1"><g transform="translate(238.389375, 347.260849)"><g><path d="M 2.484375 -18.21875 C 2.484375 -21.53125 3.316406 -24.625 4.984375 -27.5 C 6.660156 -30.382812 8.929688 -32.675781 11.796875 -34.375 C 14.660156 -36.082031 17.765625 -36.9375 21.109375 -36.9375 C 24.453125 -36.9375 27.550781 -36.082031 30.40625 -34.375 C 33.269531 -32.675781 35.554688 -30.382812 37.265625 -27.5 C 38.972656 -24.625 39.828125 -21.53125 39.828125 -18.21875 C 39.828125 -14.84375 38.972656 -11.734375 37.265625 -8.890625 C 35.554688 -6.046875 33.269531 -3.785156 30.40625 -2.109375 C 27.550781 -0.441406 24.453125 0.390625 21.109375 0.390625 C 17.722656 0.390625 14.609375 -0.441406 11.765625 -2.109375 C 8.921875 -3.785156 6.660156 -6.046875 4.984375 -8.890625 C 3.316406 -11.734375 2.484375 -14.84375 2.484375 -18.21875 Z M 9.9375 -18.21875 C 9.9375 -16.101562 10.4375 -14.148438 11.4375 -12.359375 C 12.445312 -10.578125 13.820312 -9.160156 15.5625 -8.109375 C 17.300781 -7.066406 19.234375 -6.546875 21.359375 -6.546875 C 23.410156 -6.546875 25.28125 -7.066406 26.96875 -8.109375 C 28.65625 -9.160156 29.976562 -10.570312 30.9375 -12.34375 C 31.894531 -14.113281 32.375 -16.070312 32.375 -18.21875 C 32.375 -20.40625 31.875 -22.390625 30.875 -24.171875 C 29.882812 -25.960938 28.535156 -27.378906 26.828125 -28.421875 C 25.128906 -29.472656 23.238281 -30 21.15625 -30 C 19.070312 -30 17.175781 -29.472656 15.46875 -28.421875 C 13.757812 -27.378906 12.410156 -25.960938 11.421875 -24.171875 C 10.429688 -22.390625 9.9375 -20.40625 9.9375 -18.21875 Z M 9.9375 -18.21875 "/></g></g></g><g fill="#003479" fill-opacity="1"><g transform="translate(285.64476, 347.260849)"><g><path d="M 25.421875 -21.703125 L 25.421875 0 L 19.125 0 L 18.625 -3.46875 C 17.863281 -2.082031 16.796875 -0.984375 15.421875 -0.171875 C 14.046875 0.640625 12.429688 1.046875 10.578125 1.046875 C 8.585938 1.046875 6.929688 0.4375 5.609375 -0.78125 C 4.285156 -2.007812 3.609375 -3.570312 3.578125 -5.46875 L 3.578125 -21.703125 L 10.53125 -21.703125 L 10.53125 -8.046875 C 10.625 -5.921875 11.597656 -4.859375 13.453125 -4.859375 C 14.972656 -4.859375 16.1875 -5.601562 17.09375 -7.09375 C 18.007812 -8.582031 18.46875 -10.503906 18.46875 -12.859375 L 18.46875 -21.703125 Z M 25.421875 -21.703125 "/></g></g></g><g fill="#003479" fill-opacity="1"><g transform="translate(319.59797, 347.260849)"><g><path d="M 12.5625 -31.234375 L 12.5625 -21.796875 L 17.828125 -21.796875 L 17.828125 -16.390625 L 12.5625 -16.390625 L 12.5625 0 L 5.609375 0 L 5.609375 -16.390625 L 2.234375 -16.390625 L 2.234375 -21.796875 L 5.609375 -21.796875 L 5.609375 -31.234375 Z M 12.5625 -31.234375 "/></g></g></g></svg>